<?xml version="1.0" standalone="no"?>
<!DOCTYPE svg PUBLIC "-//W3C//DTD SVG 20010904//EN"
 "http://www.w3.org/TR/2001/REC-SVG-20010904/DTD/svg10.dtd">
<svg version="1.0" xmlns="http://www.w3.org/2000/svg"
 width="225.000000pt" height="225.000000pt" viewBox="0 0 225.000000 225.000000"
 preserveAspectRatio="xMidYMid meet">
<metadata>
Created by potrace 1.14, written by Peter Selinger 2001-2017
</metadata>
<g transform="translate(0.000000,225.000000) scale(0.100000,-0.100000)"
fill="#000000" stroke="none">
<path d="M1083 1915 c-46 -19 -56 -39 -57 -115 l-1 -70 -52 -21 c-29 -11 -57
-27 -64 -35 -6 -8 -21 -14 -33 -14 -26 0 -96 -46 -96 -64 0 -23 -44 -52 -122
-80 l-78 -28 0 -88 0 -88 -37 -7 c-69 -12 -207 -46 -224 -56 -37 -19 -51 -132
-28 -221 9 -36 6 -72 -19 -218 -34 -200 -40 -174 68 -270 l65 -57 65 8 c36 4
120 13 188 19 l123 11 62 -52 c66 -55 197 -124 256 -135 64 -12 213 57 314
146 l47 42 137 -12 c75 -6 159 -15 187 -20 56 -9 66 -4 179 102 52 49 57 73
36 168 -5 25 -16 80 -24 122 -8 43 -20 86 -27 97 -9 15 -9 28 0 59 23 76 9
193 -26 210 -21 11 -117 36 -199 52 l-63 13 0 88 0 88 -55 20 c-30 11 -66 23
-80 27 -14 3 -35 20 -48 36 -38 51 -70 78 -96 84 -14 3 -33 10 -41 15 -8 5
-41 22 -73 36 -56 26 -58 28 -53 57 18 105 -51 185 -131 151z m479 -441 l45
-15 6 -82 c4 -62 1 -89 -10 -112 -9 -16 -19 -43 -22 -60 -6 -25 -12 -30 -36
-28 -16 1 -32 8 -37 15 -14 22 -9 67 12 108 24 47 26 97 5 147 -22 51 -25 49
37 27z m-70 -106 c-5 -7 -12 -22 -15 -33 -4 -16 -5 -15 -6 6 -1 27 6 39 22 39
6 0 5 -5 -1 -12z m348 -128 c12 -8 11 -10 -7 -10 -12 0 -25 5 -28 10 -8 13 15
13 35 0z m-222 -27 c-16 -39 -32 -54 -23 -23 7 24 23 50 31 50 2 0 -2 -12 -8
-27z m133 6 c19 -6 41 -13 49 -16 8 -3 29 -7 45 -9 82 -11 90 -17 93 -70 4
-63 -13 -90 -48 -75 -14 5 -60 17 -102 27 l-78 17 0 68 c0 38 2 69 4 69 1 0
18 -5 37 -11z m-83 -73 c5 -41 -6 -76 -23 -76 -17 0 -20 16 -4 26 6 3 9 24 7
45 -4 45 15 49 20 5z m-108 4 c11 -7 5 -10 -22 -10 -21 0 -38 5 -38 10 0 13
40 13 60 0z m70 -20 c0 -13 -20 -13 -40 0 -12 8 -9 10 13 10 15 0 27 -4 27
-10z m-233 -40 c15 0 22 -4 18 -11 -4 -6 -13 -8 -21 -5 -7 3 -20 -1 -28 -9
-12 -13 -16 -11 -25 17 -16 45 -14 51 11 28 12 -11 32 -20 45 -20z"/>
</g>
</svg>
